<svg width="24" height="24" viewBox="0 0 24 24" fill="none" xmlns="http://www.w3.org/2000/svg">
<path fill-rule="evenodd" clip-rule="evenodd" d="M7.4528 2H9.38459C10.3068 2 11.1753 2.43479 11.7281 3.17286L12.6098 4.34714C12.8906 4.72042 13.3298 4.94034 13.7951 4.94127H16.5296C20.3106 4.94127 22 6.92273 22 10.9706L21.9735 15.7715C21.9735 19.6347 19.6114 22 15.7533 22H8.22905C4.36352 22 2 19.6361 2 15.7715V8.22847C2 4.17544 3.72991 2 7.4528 2ZM9.38459 3.45147H7.4528C4.61233 3.45147 3.44955 4.91372 3.44955 8.22847V15.7715C3.44955 18.8341 5.1637 20.5485 8.22905 20.5485H15.7533C18.8109 20.5485 20.524 18.8331 20.524 15.7675L20.5505 10.9666C20.5505 7.67793 19.4547 6.39274 16.5296 6.39274L13.7936 6.39273C12.8727 6.3909 12.0059 5.95693 11.4516 5.21988L10.569 4.04444C10.2894 3.67116 9.85058 3.45147 9.38459 3.45147Z" fill="#200E32"/>
</svg>
