<svg width="24" height="24" viewBox="0 0 24 24" fill="none" xmlns="http://www.w3.org/2000/svg">
<path fill-rule="evenodd" clip-rule="evenodd" d="M6.96651 21.905C7.33451 21.968 7.72551 22 8.13751 22H15.8625C19.0835 22 20.9995 20.048 20.9995 16.791V7.209V7.132C20.9695 3.92 19.0585 2 15.8625 2H8.13751C5.25351 2 3.40851 3.564 3.05951 6.249C3.01951 6.555 2.99951 6.875 2.99951 7.209V16.791C2.99951 19.555 4.37751 21.371 6.74851 21.864L6.96651 21.905ZM4.43651 7.209C4.43651 4.72 5.68151 3.457 8.13751 3.457H15.8535C18.3085 3.457 19.5455 4.72 19.5455 7.209V16.791C19.5455 19.28 18.3085 20.543 15.8535 20.543H8.13751C5.68151 20.543 4.43651 19.28 4.43651 16.791V7.209ZM11.3868 17C11.7528 17.041 12.0298 17.355 12.0298 17.729C12.0298 18.102 11.7528 18.416 11.3868 18.457H8.64382C8.27682 18.416 7.99982 18.102 7.99982 17.729C7.99982 17.355 8.27682 17.041 8.64382 17H11.3868ZM11.9998 15.7305C11.9998 15.3557 11.5874 15.0411 11.0425 15H6.95863C6.41222 15.0411 5.99982 15.3557 5.99982 15.7305C5.99982 16.1043 6.41222 16.4189 6.95863 16.46H11.0425C11.5874 16.4189 11.9998 16.1043 11.9998 15.7305Z" fill="#200E32"/>
<path d="M12.1083 5C12.4615 5 12.7534 5.26247 12.7996 5.603L12.806 5.69767V12.5129C12.806 12.8982 12.4936 13.2106 12.1083 13.2106C11.7551 13.2106 11.4632 12.9481 11.417 12.6076L11.4106 12.5129V5.69767C11.4106 5.31236 11.723 5 12.1083 5Z" fill="#200E32"/>
<path d="M15.5194 8.40762C15.9047 8.40762 16.2171 8.71998 16.2171 9.1053C16.2171 9.4585 15.9546 9.75041 15.614 9.7966L15.5194 9.80297H8.69767C8.31236 9.80297 8 9.49061 8 9.1053C8 8.75209 8.26247 8.46019 8.603 8.41399L8.69767 8.40762H15.5194Z" fill="#200E32"/>
</svg>
