<svg width="18" height="18" viewBox="0 0 18 18" fill="none" xmlns="http://www.w3.org/2000/svg">
<path fill-rule="evenodd" clip-rule="evenodd" d="M5.74924 1.50015H12.251C14.8038 1.50015 16.5005 3.32228 16.5005 5.93715V12.0632C16.5005 14.6782 14.8037 16.5002 12.2502 16.5002H5.74924C3.19601 16.5002 1.50049 14.6784 1.50049 12.0632V5.93715C1.50049 3.3246 3.20106 1.50015 5.74924 1.50015ZM12.0593 3.00003H5.94C4.14377 3.00003 3 4.22712 3 6.11721V11.8829C3 13.7758 4.13939 15 5.94 15H12.0586C13.8596 15 15 13.7754 15 11.8829V6.11721C15 4.22471 13.8596 3.00003 12.0593 3.00003Z" fill="white"/>
</svg>
