<svg width="24" height="24" viewBox="0 0 24 24" fill="none" xmlns="http://www.w3.org/2000/svg">
<path fill-rule="evenodd" clip-rule="evenodd" d="M7.66561 2.00018H16.3346C19.7384 2.00018 22.0006 4.42969 22.0006 7.91618V16.0842C22.0006 19.5709 19.7382 22.0002 16.3336 22.0002H7.66561C4.26198 22.0002 2.00061 19.5709 2.00061 16.0842V7.91618C2.00061 4.43278 4.26804 2.00018 7.66561 2.00018ZM16.3346 3.50018H7.66561C5.12095 3.50018 3.50061 5.23856 3.50061 7.91618V16.0842C3.50061 18.7655 5.11537 20.5002 7.66561 20.5002H16.3336C18.885 20.5002 20.5006 18.7653 20.5006 16.0842V7.91618C20.5006 5.23515 18.8851 3.50018 16.3346 3.50018Z" fill="#200E32"/>
</svg>
