<svg width="54" height="46" viewBox="0 0 54 46" fill="none" xmlns="http://www.w3.org/2000/svg">
<g filter="url(#filter0_d)">
<path d="M2 2H38C43.5228 2 48 6.47715 48 12V30C48 35.5228 43.5228 40 38 40H2V2Z" fill="white"/>
</g>
<path d="M25.8125 21.0218H13.7715" stroke="#200E32" stroke-width="1.5" stroke-linecap="round" stroke-linejoin="round"/>
<path d="M22.8848 18.1058L25.8128 21.0218L22.8848 23.9378" stroke="#200E32" stroke-width="1.5" stroke-linecap="round" stroke-linejoin="round"/>
<path d="M18.5039 16.389V15.456C18.5039 13.421 20.1529 11.772 22.1889 11.772H27.0729C29.1029 11.772 30.7479 13.417 30.7479 15.447V26.587C30.7479 28.622 29.0979 30.272 27.0629 30.272H22.1779C20.1489 30.272 18.5039 28.626 18.5039 26.597V25.655" stroke="#200E32" stroke-width="1.5" stroke-linecap="round" stroke-linejoin="round"/>
<defs>
<filter id="filter0_d" x="0" y="0" width="54" height="46" filterUnits="userSpaceOnUse" color-interpolation-filters="sRGB">
<feFlood flood-opacity="0" result="BackgroundImageFix"/>
<feColorMatrix in="SourceAlpha" type="matrix" values="0 0 0 0 0 0 0 0 0 0 0 0 0 0 0 0 0 0 127 0"/>
<feOffset dx="2" dy="2"/>
<feGaussianBlur stdDeviation="2"/>
<feColorMatrix type="matrix" values="0 0 0 0 0 0 0 0 0 0 0 0 0 0 0 0 0 0 0.25 0"/>
<feBlend mode="normal" in2="BackgroundImageFix" result="effect1_dropShadow"/>
<feBlend mode="normal" in="SourceGraphic" in2="effect1_dropShadow" result="shape"/>
</filter>
</defs>
</svg>
