<svg width="24" height="24" viewBox="0 0 24 24" fill="none" xmlns="http://www.w3.org/2000/svg">
<path fill-rule="evenodd" clip-rule="evenodd" d="M11.8722 1.9997C14.7262 1.9997 17.0542 4.25632 17.1688 7.08227L17.1732 7.30075V8.87661C18.9497 9.49326 20.225 11.1817 20.225 13.1685V17.4575C20.225 19.9664 18.1915 21.9995 15.683 21.9995H8.042C5.53347 21.9995 3.5 19.9664 3.5 17.4575V13.1685C3.5 11.1816 4.77545 9.493 6.5522 8.87647L6.55221 7.27746C6.56502 4.34947 8.94806 1.98695 11.8722 1.9997ZM15.6732 7.30075V8.62654H8.0522V7.28075L8.058 7.08543C8.16855 5.08021 9.83555 3.49083 11.8689 3.49969C13.971 3.4997 15.6732 5.20195 15.6732 7.30075ZM15.683 10.1265H8.042C6.36184 10.1265 5 11.4881 5 13.1685V17.4575C5 19.138 6.36184 20.4995 8.042 20.4995H15.683C17.3632 20.4995 18.725 19.138 18.725 17.4575V13.1685C18.725 11.4881 17.3632 10.1265 15.683 10.1265ZM12.6059 14.1009C12.5562 13.7348 12.2424 13.4526 11.8627 13.4526C11.4485 13.4526 11.1127 13.7884 11.1127 14.2026V16.4236L11.1195 16.5254C11.1692 16.8915 11.483 17.1736 11.8627 17.1736C12.2769 17.1736 12.6127 16.8379 12.6127 16.4236V14.2026L12.6059 14.1009Z" fill="#200E32"/>
</svg>
