<svg width="16" height="16" viewBox="0 0 18 18" fill="none" xmlns="http://www.w3.org/2000/svg">
<path fill-rule="evenodd" clip-rule="evenodd" d="M12.251 1.50015H5.74924C3.20106 1.50015 1.50049 3.3246 1.50049 5.93715V12.0632C1.50049 14.6784 3.19601 16.5002 5.74924 16.5002H12.2502C14.8037 16.5002 16.5005 14.6782 16.5005 12.0632V5.93715C16.5005 3.32228 14.8038 1.50015 12.251 1.50015ZM5.74924 2.62515H12.251C14.1639 2.62515 15.3755 3.92638 15.3755 5.93715V12.0632C15.3755 14.074 14.1638 15.3752 12.2502 15.3752H5.74924C3.83609 15.3752 2.62549 14.0745 2.62549 12.0632V5.93715C2.62549 3.92893 3.84074 2.62515 5.74924 2.62515ZM4.74206 9.0003C4.74206 9.4953 5.14481 9.89805 5.64056 9.89805C6.13631 9.89805 6.53906 9.4953 6.53906 9.0003C6.53906 8.5053 6.13631 8.1018 5.64056 8.1018C5.14481 8.1018 4.74206 8.5053 4.74206 9.0003ZM9.00011 9.89805C8.50436 9.89805 8.10161 9.4953 8.10161 9.0003C8.10161 8.5053 8.50436 8.1018 9.00011 8.1018C9.49586 8.1018 9.89861 8.5053 9.89861 9.0003C9.89861 9.4953 9.49586 9.89805 9.00011 9.89805ZM11.4609 9.0003C11.4609 9.4953 11.8636 9.89805 12.3594 9.89805C12.8551 9.89805 13.2579 9.4953 13.2579 9.0003C13.2579 8.5053 12.8551 8.1018 12.3594 8.1018C11.8636 8.1018 11.4609 8.5053 11.4609 9.0003Z" fill="white"/>
</svg>
