<svg width="52" height="46" viewBox="0 0 52 46" fill="none" xmlns="http://www.w3.org/2000/svg">
<g filter="url(#filter0_d)">
<path d="M0 2H36C41.5228 2 46 6.47715 46 12V30C46 35.5228 41.5228 40 36 40H0V2Z" fill="white"/>
</g>
<path fill-rule="evenodd" clip-rule="evenodd" d="M27.4709 10.9284C27.4193 10.5453 27.0935 10.25 26.6992 10.25C26.269 10.25 25.9203 10.6014 25.9203 11.0349V11.9026H19.0892V11.0349L19.0821 10.9284C19.0305 10.5453 18.7047 10.25 18.3104 10.25C17.8802 10.25 17.5315 10.6014 17.5315 11.0349V11.9221C14.3399 12.1419 12.375 14.2099 12.375 17.5465V27.0171C12.375 30.5981 14.5781 32.75 18.1083 32.75H26.8916C30.426 32.75 32.6249 30.6342 32.6249 27.0962V17.5465C32.6351 14.2087 30.6765 12.1413 27.478 11.922V11.0349L27.4709 10.9284ZM25.9203 13.4724V14.4787L25.9274 14.5852C25.979 14.9683 26.3049 15.2636 26.6992 15.2636C27.1293 15.2636 27.478 14.9122 27.478 14.4787V13.4956C29.8052 13.6892 31.0747 15.0906 31.0673 17.5441V17.9986H13.9327V17.5465C13.9327 15.0945 15.2092 13.6902 17.5315 13.4958V14.4787L17.5386 14.5852C17.5902 14.9683 17.9161 15.2636 18.3104 15.2636C18.7405 15.2636 19.0892 14.9122 19.0892 14.4787V13.4724H25.9203ZM13.9327 19.5684V27.0171C13.9327 29.72 15.4277 31.1802 18.1083 31.1802H26.8916C29.5814 31.1802 31.0673 29.7506 31.0673 27.0962L31.0673 19.5684H13.9327ZM27.9014 22.8706C27.9014 22.4371 27.5527 22.0857 27.1225 22.0857L27.0072 22.0929C26.6271 22.1449 26.334 22.4733 26.334 22.8706C26.334 23.3041 26.6827 23.6555 27.1225 23.6555L27.2282 23.6483C27.6083 23.5964 27.9014 23.268 27.9014 22.8706ZM22.5143 22.0857C22.9445 22.0857 23.2932 22.4371 23.2932 22.8706C23.2932 23.268 23.0002 23.5964 22.62 23.6483L22.5143 23.6555C22.0746 23.6555 21.7259 23.3041 21.7259 22.8706C21.7259 22.4733 22.0189 22.1449 22.399 22.0929L22.5143 22.0857ZM18.6755 22.8706C18.6755 22.4371 18.3268 22.0857 17.8966 22.0857L17.7813 22.0929C17.4012 22.1449 17.1081 22.4733 17.1081 22.8706C17.1081 23.3041 17.4568 23.6555 17.887 23.6555L18.0023 23.6483C18.3824 23.5964 18.6755 23.268 18.6755 22.8706ZM27.1225 26.153C27.5527 26.153 27.9014 26.5044 27.9014 26.9379C27.9014 27.3353 27.6083 27.6636 27.2282 27.7156L27.1225 27.7228C26.6827 27.7228 26.334 27.3714 26.334 26.9379C26.334 26.5405 26.6271 26.2122 27.0072 26.1602L27.1225 26.153ZM23.2932 26.9379C23.2932 26.5044 22.9445 26.153 22.5143 26.153L22.399 26.1602C22.0189 26.2122 21.7259 26.5405 21.7259 26.9379C21.7259 27.3714 22.0746 27.7228 22.5143 27.7228L22.62 27.7156C23.0002 27.6636 23.2932 27.3353 23.2932 26.9379ZM17.8966 26.153C18.3268 26.153 18.6755 26.5044 18.6755 26.9379C18.6755 27.3353 18.3824 27.6636 18.0023 27.7156L17.887 27.7228C17.4568 27.7228 17.1081 27.3714 17.1081 26.9379C17.1081 26.5405 17.4012 26.2122 17.7813 26.1602L17.8966 26.153Z" fill="#200E32"/>
<defs>
<filter id="filter0_d" x="-2" y="0" width="54" height="46" filterUnits="userSpaceOnUse" color-interpolation-filters="sRGB">
<feFlood flood-opacity="0" result="BackgroundImageFix"/>
<feColorMatrix in="SourceAlpha" type="matrix" values="0 0 0 0 0 0 0 0 0 0 0 0 0 0 0 0 0 0 127 0"/>
<feOffset dx="2" dy="2"/>
<feGaussianBlur stdDeviation="2"/>
<feColorMatrix type="matrix" values="0 0 0 0 0 0 0 0 0 0 0 0 0 0 0 0 0 0 0.25 0"/>
<feBlend mode="normal" in2="BackgroundImageFix" result="effect1_dropShadow"/>
<feBlend mode="normal" in="SourceGraphic" in2="effect1_dropShadow" result="shape"/>
</filter>
</defs>
</svg>
