<svg width="52" height="46" viewBox="0 0 52 46" fill="none" xmlns="http://www.w3.org/2000/svg">
<g filter="url(#filter0_d)">
<path d="M0 2H36C41.5228 2 46 6.47715 46 12V30C46 35.5228 41.5228 40 36 40H0V2Z" fill="white"/>
</g>
<g filter="url(#filter1_d)">
<path fill-rule="evenodd" clip-rule="evenodd" d="M32.5241 18.7529C31.885 14.8195 28.5441 11.8932 24.5608 11.778C24.3714 11.7706 24.1868 11.8388 24.0477 11.9676C23.9086 12.0964 23.8265 12.2751 23.8193 12.4645V12.4645V12.5286L24.2678 19.238C24.2973 19.6897 24.6856 20.033 25.1374 20.0069L31.8651 19.5584C32.0547 19.5443 32.2308 19.4553 32.3545 19.311C32.4782 19.1667 32.5393 18.979 32.5241 18.7895V18.7529Z" stroke="#200E32" stroke-width="1.5" stroke-linecap="round" stroke-linejoin="round"/>
<path d="M19.902 15.7689C20.33 15.6699 20.7679 15.8889 20.9455 16.2906C20.992 16.3851 21.02 16.4877 21.0279 16.5927C21.1194 17.8925 21.3116 20.7391 21.4214 22.2769C21.4402 22.5539 21.5686 22.812 21.7782 22.9941C21.9877 23.1762 22.2612 23.2673 22.5382 23.2472V23.2472L28.1858 22.8993C28.4379 22.8842 28.6851 22.9739 28.8688 23.1472C29.0525 23.3205 29.1565 23.5621 29.156 23.8147V23.8147C28.9271 27.225 26.4769 30.0761 23.1397 30.8151C19.8025 31.5541 16.3777 30.0041 14.7304 27.0092C14.2386 26.1472 13.9272 25.1943 13.815 24.2083C13.7671 23.9056 13.7487 23.5991 13.7601 23.2929C13.7698 19.6509 16.3276 16.5129 19.8928 15.7689" stroke="#200E32" stroke-width="1.5" stroke-linecap="round" stroke-linejoin="round"/>
</g>
<defs>
<filter id="filter0_d" x="-2" y="0" width="54" height="46" filterUnits="userSpaceOnUse" color-interpolation-filters="sRGB">
<feFlood flood-opacity="0" result="BackgroundImageFix"/>
<feColorMatrix in="SourceAlpha" type="matrix" values="0 0 0 0 0 0 0 0 0 0 0 0 0 0 0 0 0 0 127 0"/>
<feOffset dx="2" dy="2"/>
<feGaussianBlur stdDeviation="2"/>
<feColorMatrix type="matrix" values="0 0 0 0 0 0 0 0 0 0 0 0 0 0 0 0 0 0 0.25 0"/>
<feBlend mode="normal" in2="BackgroundImageFix" result="effect1_dropShadow"/>
<feBlend mode="normal" in="SourceGraphic" in2="effect1_dropShadow" result="shape"/>
</filter>
<filter id="filter1_d" x="9" y="7" width="32" height="32" filterUnits="userSpaceOnUse" color-interpolation-filters="sRGB">
<feFlood flood-opacity="0" result="BackgroundImageFix"/>
<feColorMatrix in="SourceAlpha" type="matrix" values="0 0 0 0 0 0 0 0 0 0 0 0 0 0 0 0 0 0 127 0"/>
<feOffset dx="2" dy="2"/>
<feGaussianBlur stdDeviation="2"/>
<feColorMatrix type="matrix" values="0 0 0 0 0 0 0 0 0 0 0 0 0 0 0 0 0 0 0.25 0"/>
<feBlend mode="normal" in2="BackgroundImageFix" result="effect1_dropShadow"/>
<feBlend mode="normal" in="SourceGraphic" in2="effect1_dropShadow" result="shape"/>
</filter>
</defs>
</svg>
